<svg width="20" height="20" viewBox="0 0 20 20" fill="none" xmlns="http://www.w3.org/2000/svg">
    <path opacity="0.3" d="M14.168 5H2.5013C2.0013 5 1.66797 5.33333 1.66797 5.83333V17.5C1.66797 18 2.0013 18.3333 2.5013 18.3333H14.168C14.668 18.3333 15.0013 18 15.0013 17.5V5.83333C15.0013 5.33333 14.668 5 14.168 5Z" fill="#009EF7"/>
    <path d="M14.8333 4L7.75 11.0833C7.41667 11.4167 7.41667 11.9167 7.75 12.25C7.91667 12.4167 8.16667 12.5 8.33333 12.5C8.5 12.5 8.75 12.4167 8.91667 12.25L16 5.16668L14.8333 4Z" fill="#009EF7"/>
    <path d="M18.3346 7.58071V2.4974C18.3346 1.9974 18.0013 1.66406 17.5013 1.66406H12.418L18.3346 7.58071Z" fill="#80CFFB"/>
</svg>
