<svg width="24" height="24" viewBox="0 0 24 24" fill="none" xmlns="http://www.w3.org/2000/svg">
    <path opacity="0.3" d="M21 22H3C2.4 22 2 21.6 2 21V5C2 4.4 2.4 4 3 4H21C21.6 4 22 4.4 22 5V21C22 21.6 21.6 22 21 22Z" fill="#9DA3B1"/>
    <path opacity="0.7" d="M6 6C5.4 6 5 5.6 5 5V3C5 2.4 5.4 2 6 2C6.6 2 7 2.4 7 3V5C7 5.6 6.6 6 6 6ZM11 5V3C11 2.4 10.6 2 10 2C9.4 2 9 2.4 9 3V5C9 5.6 9.4 6 10 6C10.6 6 11 5.6 11 5ZM15 5V3C15 2.4 14.6 2 14 2C13.4 2 13 2.4 13 3V5C13 5.6 13.4 6 14 6C14.6 6 15 5.6 15 5ZM19 5V3C19 2.4 18.6 2 18 2C17.4 2 17 2.4 17 3V5C17 5.6 17.4 6 18 6C18.6 6 19 5.6 19 5Z" fill="#494949"/>
    <path opacity="0.7" d="M8.80155 13.1015C9.20155 13.1015 9.50155 13.0015 9.70155 12.8015C9.90155 12.6015 10.1016 12.3015 10.1016 11.9015C10.1016 11.6015 10.0016 11.3015 9.80155 11.1015C9.60155 10.9015 9.30155 10.8015 9.00155 10.8015C8.80155 10.8015 8.60154 10.8015 8.40154 10.9015C8.20154 11.0015 8.10155 11.1015 8.00155 11.2015C7.90155 11.3015 7.80155 11.4015 7.70155 11.6015C7.60155 11.8015 7.50155 11.9015 7.50155 12.1015C7.50155 12.2015 7.40155 12.2015 7.30155 12.3015C7.20155 12.4015 7.10154 12.4015 6.90154 12.4015C6.70154 12.4015 6.60155 12.3015 6.50155 12.2015C6.40155 12.1015 6.30155 11.9015 6.30155 11.7015C6.30155 11.5015 6.40155 11.3015 6.50155 11.1015C6.60155 10.9015 6.80155 10.7015 7.00155 10.5015C7.20155 10.3015 7.50154 10.1015 7.90154 10.0015C8.30154 9.90155 8.60156 9.80155 9.10156 9.80155C9.50156 9.80155 9.80156 9.90155 10.1016 10.0015C10.4016 10.1015 10.7016 10.3015 10.9016 10.4015C11.1016 10.5015 11.3016 10.8015 11.4016 11.1015C11.5016 11.4015 11.6016 11.6015 11.6016 11.9015C11.6016 12.3015 11.5016 12.6015 11.3016 12.9015C11.1016 13.2015 10.9016 13.5015 10.6016 13.7015C10.9016 13.9015 11.2016 14.1015 11.4016 14.3015C11.6016 14.5015 11.8016 14.7015 11.9016 15.0015C12.0016 15.3015 12.1016 15.5015 12.1016 15.8015C12.1016 16.2015 12.0016 16.5015 11.9016 16.8015C11.8016 17.1015 11.5016 17.4015 11.3016 17.7015C11.1016 18.0015 10.7016 18.2015 10.3016 18.3015C9.90155 18.4015 9.50155 18.5015 9.00155 18.5015C8.50155 18.5015 8.10155 18.4015 7.70155 18.2015C7.30155 18.0015 7.00155 17.8015 6.80155 17.6015C6.60155 17.4015 6.40155 17.1015 6.30155 16.8015C6.20155 16.5015 6.10156 16.3015 6.10156 16.1015C6.10156 15.9015 6.20155 15.7015 6.30155 15.6015C6.40155 15.5015 6.60155 15.4015 6.80155 15.4015C6.90155 15.4015 7.00156 15.4015 7.10156 15.5015C7.20156 15.6015 7.30155 15.6015 7.30155 15.7015C7.50155 16.2015 7.70155 16.6015 8.00155 16.9015C8.30155 17.2015 8.60155 17.3015 9.00155 17.3015C9.20155 17.3015 9.50155 17.2015 9.70155 17.1015C9.90155 17.0015 10.1016 16.8015 10.3016 16.6015C10.5016 16.4015 10.5016 16.1015 10.5016 15.8015C10.5016 15.3015 10.4016 15.0015 10.1016 14.7015C9.80156 14.4015 9.50156 14.3015 9.10156 14.3015C9.00156 14.3015 8.90155 14.3015 8.70155 14.3015C8.50155 14.3015 8.40154 14.3015 8.40154 14.3015C8.20154 14.3015 8.00154 14.2015 7.90154 14.1015C7.80154 14.0015 7.70155 13.8015 7.70155 13.7015C7.70155 13.5015 7.80154 13.4015 7.90154 13.2015C8.00154 13.0015 8.20155 13.0015 8.50155 13.0015H8.80155V13.1015ZM15.3016 17.5015V12.2015C14.3016 13.0015 13.6016 13.3015 13.3016 13.3015C13.1016 13.3015 13.0016 13.2015 12.9016 13.1015C12.8016 13.0015 12.7016 12.8015 12.7016 12.6015C12.7016 12.4015 12.8016 12.3015 12.9016 12.2015C13.0016 12.1015 13.2016 12.0015 13.6016 11.8015C14.1016 11.6015 14.5016 11.3015 14.7016 11.1015C14.9016 10.9015 15.2016 10.6015 15.5016 10.3015C15.8016 10.0015 15.9016 9.80155 15.9016 9.70155C15.9016 9.60155 16.1016 9.60156 16.3016 9.60156C16.5016 9.60156 16.7016 9.70155 16.8016 9.80155C16.9016 9.90155 17.0016 10.2015 17.0016 10.5015V17.2015C17.0016 18.0015 16.7016 18.4015 16.2016 18.4015C16.0016 18.4015 15.8016 18.3015 15.6016 18.2015C15.4016 18.1015 15.3016 17.8015 15.3016 17.5015Z" fill="#494949"/>
</svg>
