<svg width="60" height="60" viewBox="0 0 60 60" fill="none" xmlns="http://www.w3.org/2000/svg">
    <path opacity="0.3" d="M47.5039 55H12.5039C11.0039 55 10.0039 54 10.0039 52.5V7.5C10.0039 6 11.0039 5 12.5039 5H35.0039L50.0039 20V52.5C50.0039 54 49.0039 55 47.5039 55ZM40.0039 31.5L31.7539 23.25C30.7539 22.25 29.2539 22.25 28.2539 23.25L20.0039 31.5H27.5039V45C27.5039 46.5 28.5039 47.5 30.0039 47.5C31.5039 47.5 32.5039 46.5 32.5039 45V31.5H40.0039Z" fill="#009EF7"/>
    <path d="M37.4961 20H49.9961L34.9961 5V17.5C34.9961 19 35.9961 20 37.4961 20Z" fill="#009EF7"/>
</svg>
