<svg width="36" height="36" viewBox="0 0 36 36" fill="none" xmlns="http://www.w3.org/2000/svg">
    <path d="M30 21H27V15H30C30.9 15 31.5 15.6 31.5 16.5V19.5C31.5 20.4 30.9 21 30 21ZM31.5 28.5V25.5C31.5 24.6 30.9 24 30 24H27V30H30C30.9 30 31.5 29.4 31.5 28.5ZM31.5 10.5V7.5C31.5 6.6 30.9 6 30 6H27V12H30C30.9 12 31.5 11.4 31.5 10.5Z" fill="#009EF7"/>
    <path opacity="0.3" d="M25.5 33H4.5C3.6 33 3 32.4 3 31.5V4.5C3 3.6 3.6 3 4.5 3H25.5C26.4 3 27 3.6 27 4.5V31.5C27 32.4 26.4 33 25.5 33ZM15 10.5C13.35 10.5 12 11.85 12 13.5C12 15.15 13.35 16.5 15 16.5C16.65 16.5 18 15.15 18 13.5C18 11.85 16.65 10.5 15 10.5ZM19.95 24C21 24 21.75 22.95 21.45 22.05C20.55 19.8 18 18 15.15 18C12.15 18 9.74999 19.65 8.84999 22.05C8.39999 22.95 9.29998 24 11.1 24H19.95Z" fill="#40B6F9"/>
</svg>
