<svg width="34" height="34" viewBox="0 0 34 34" fill="none" xmlns="http://www.w3.org/2000/svg">
    <path opacity="0.3" d="M25.4987 19.8333C23.1515 19.8333 21.2487 17.9305 21.2487 15.5833C21.2487 13.2361 23.1515 11.3333 25.4987 11.3333C27.8459 11.3333 29.7487 13.2361 29.7487 15.5833C29.7487 17.9305 27.8459 19.8333 25.4987 19.8333ZM12.7487 15.5833C9.61908 15.5833 7.08203 13.0463 7.08203 9.91667C7.08203 6.78705 9.61908 4.25 12.7487 4.25C15.8783 4.25 18.4154 6.78705 18.4154 9.91667C18.4154 13.0463 15.8783 15.5833 12.7487 15.5833Z" fill="#DBDCE0"/>
    <path d="M24.935 21.2522C29.7609 21.3049 33.7013 23.7448 33.9979 28.9013C34.0098 29.109 33.9979 29.7513 33.2293 29.7513H27.7667C27.7667 26.5625 26.7131 23.6197 24.935 21.2522ZM0.000923219 28.6168C0.550033 21.8555 6.03771 18.418 12.7264 18.418C19.5092 18.418 25.0819 21.6667 25.497 28.618C25.5136 28.8949 25.497 29.7513 24.4328 29.7513C19.1833 29.7513 11.3825 29.7513 1.03063 29.7513C0.675342 29.7513 -0.0289875 28.9851 0.000923219 28.6168Z" fill="#757576"/>
</svg>
