<svg width="24" height="25" viewBox="0 0 24 25" fill="none" xmlns="http://www.w3.org/2000/svg">
    <path opacity="0.3" fill-rule="evenodd" clip-rule="evenodd" d="M6 3.36719H18L20 6.86719H4L6 3.36719Z" fill="#80CFFB"/>
    <path fill-rule="evenodd" clip-rule="evenodd" d="M6 5.36719H18C19.1046 5.36719 20 6.26262 20 7.36719V19.3672C20 20.4718 19.1046 21.3672 18 21.3672H6C4.89543 21.3672 4 20.4718 4 19.3672V7.36719C4 6.26262 4.89543 5.36719 6 5.36719ZM9 9.36719C8.44772 9.36719 8 9.8149 8 10.3672C8 10.9195 8.44772 11.3672 9 11.3672H15C15.5523 11.3672 16 10.9195 16 10.3672C16 9.8149 15.5523 9.36719 15 9.36719H9Z" fill="#40B6F9"/>
</svg>
