<svg width="20" height="20" viewBox="0 0 20 20" fill="none" xmlns="http://www.w3.org/2000/svg">
    <path fill-rule="evenodd" clip-rule="evenodd" d="M10.0013 1.66406C9.0809 1.66406 8.33469 2.41025 8.33469 3.33073C8.33469 3.45435 8.25084 3.56171 8.13216 3.59631C7.66398 3.7328 7.21709 3.91925 6.79767 4.1495C6.68901 4.20916 6.55342 4.19249 6.46577 4.10484C5.81489 3.45396 4.75962 3.45396 4.10874 4.10484C3.45787 4.75571 3.45787 5.81099 4.10874 6.46186C4.19639 6.54951 4.21306 6.6851 4.15341 6.79376C3.92316 7.21317 3.73672 7.66003 3.60024 8.12819C3.56564 8.24687 3.45825 8.33073 3.33464 8.33073C2.41416 8.33073 1.66797 9.0769 1.66797 9.9974C1.66797 10.9179 2.41416 11.6641 3.33464 11.6641C3.45825 11.6641 3.56564 11.7479 3.60024 11.8666C3.73672 12.3347 3.92316 12.7816 4.15341 13.2011C4.21306 13.3096 4.19639 13.4453 4.10874 13.5329C3.45787 14.1838 3.45787 15.2391 4.10874 15.89C4.75962 16.5408 5.81489 16.5408 6.46577 15.89C6.55342 15.8023 6.68901 15.7856 6.79767 15.8453C7.21709 16.0756 7.66398 16.262 8.13216 16.3985C8.25084 16.4331 8.33469 16.5405 8.33469 16.6641C8.33469 17.5846 9.0809 18.3307 10.0013 18.3307C10.9218 18.3307 11.668 17.5846 11.668 16.6641C11.668 16.5404 11.7519 16.4331 11.8706 16.3985C12.3387 16.262 12.7856 16.0756 13.2049 15.8453C13.3136 15.7856 13.4492 15.8023 13.5368 15.89C14.1877 16.5408 15.243 16.5408 15.8938 15.89C16.5447 15.2391 16.5447 14.1838 15.8938 13.5329C15.8062 13.4453 15.7896 13.3096 15.8492 13.2011C16.0794 12.7816 16.2659 12.3347 16.4024 11.8666C16.437 11.7479 16.5443 11.6641 16.668 11.6641C17.5884 11.6641 18.3347 10.9179 18.3347 9.9974C18.3347 9.0769 17.5884 8.33073 16.668 8.33073C16.5443 8.33073 16.437 8.24687 16.4024 8.12819C16.2659 7.66003 16.0794 7.21317 15.8492 6.79376C15.7896 6.6851 15.8062 6.54951 15.8938 6.46186C16.5447 5.81099 16.5447 4.75571 15.8938 4.10484C15.243 3.45396 14.1877 3.45396 13.5368 4.10484C13.4492 4.19249 13.3136 4.20916 13.2049 4.1495C12.7856 3.91927 12.3387 3.73283 11.8706 3.59635C11.7519 3.56175 11.668 3.45436 11.668 3.33073C11.668 2.41025 10.9218 1.66406 10.0013 1.66406ZM10.0014 12.4974C11.3822 12.4974 12.5014 11.3781 12.5014 9.9974C12.5014 8.61665 11.3822 7.4974 10.0014 7.4974C8.62065 7.4974 7.5014 8.61665 7.5014 9.9974C7.5014 11.3781 8.62065 12.4974 10.0014 12.4974Z" fill="#9DA3B1"/>
    <path fill-rule="evenodd" clip-rule="evenodd" d="M10.0013 11.6641C10.9218 11.6641 11.668 10.9179 11.668 9.9974C11.668 9.0769 10.9218 8.33073 10.0013 8.33073C9.0808 8.33073 8.33464 9.0769 8.33464 9.9974C8.33464 10.9179 9.0808 11.6641 10.0013 11.6641ZM10.0013 13.3307C11.8422 13.3307 13.3346 11.8383 13.3346 9.9974C13.3346 8.15645 11.8422 6.66406 10.0013 6.66406C8.16035 6.66406 6.66797 8.15645 6.66797 9.9974C6.66797 11.8383 8.16035 13.3307 10.0013 13.3307Z" fill="#494949"/>
</svg>
