<svg width="16" height="16" viewBox="0 0 16 16" fill="none" xmlns="http://www.w3.org/2000/svg">
    <path d="M7.9987 14.6654C11.6806 14.6654 14.6654 11.6806 14.6654 7.9987C14.6654 4.3168 11.6806 1.33203 7.9987 1.33203C4.3168 1.33203 1.33203 4.3168 1.33203 7.9987C1.33203 11.6806 4.3168 14.6654 7.9987 14.6654Z" fill="#494949"/>
    <path d="M8.66536 5.33464C8.66536 4.96645 8.36689 4.66797 7.9987 4.66797C7.63051 4.66797 7.33203 4.96645 7.33203 5.33464V9.33464C7.33203 9.70283 7.63051 10.0013 7.9987 10.0013C8.36689 10.0013 8.66536 9.70283 8.66536 9.33464V5.33464Z" fill="white"/>
    <path d="M8.66536 11.3346C8.66536 10.9664 8.36689 10.668 7.9987 10.668C7.63051 10.668 7.33203 10.9664 7.33203 11.3346C7.33203 11.7028 7.63051 12.0013 7.9987 12.0013C8.36689 12.0013 8.66536 11.7028 8.66536 11.3346Z" fill="white"/>
</svg>
